<svg xmlns="http://www.w3.org/2000/svg" xmlns:xlink="http://www.w3.org/1999/xlink" width="500" zoomAndPan="magnify" viewBox="0 0 375 374.999991" height="500" preserveAspectRatio="xMidYMid meet" version="1.0"><defs><g/><clipPath id="910b08a3af"><path d="M 6.082031 86.800781 L 125.90625 86.800781 L 125.90625 275 L 6.082031 275 Z M 6.082031 86.800781 " clip-rule="nonzero"/></clipPath><clipPath id="5455d87c05"><path d="M 11.996094 274.675781 C 11.292969 274.675781 10.582031 274.546875 9.886719 274.285156 C 6.839844 273.121094 5.3125 269.707031 6.476562 266.660156 L 73.730469 90.601562 C 74.65625 88.171875 77.0625 86.628906 79.660156 86.820312 C 82.261719 87.007812 84.425781 88.855469 85.007812 91.394531 L 125.367188 267.445312 C 126.097656 270.625 124.105469 273.792969 120.925781 274.527344 C 117.746094 275.257812 114.574219 273.265625 113.84375 270.085938 L 77.832031 112.980469 L 17.515625 270.871094 C 16.621094 273.226562 14.375 274.671875 11.996094 274.671875 " clip-rule="nonzero"/></clipPath><clipPath id="d55a69f7c4"><path d="M 250.1875 86.800781 L 370.011719 86.800781 L 370.011719 275 L 250.1875 275 Z M 250.1875 86.800781 " clip-rule="nonzero"/></clipPath><clipPath id="78581701b0"><path d="M 364.101562 274.675781 C 361.726562 274.675781 359.484375 273.230469 358.578125 270.878906 L 298.265625 112.980469 L 262.25 270.085938 C 261.519531 273.265625 258.359375 275.25 255.171875 274.527344 C 251.988281 273.800781 250.007812 270.625 250.730469 267.445312 L 291.085938 91.394531 C 291.664062 88.855469 293.835938 87.003906 296.429688 86.820312 C 299.023438 86.636719 301.433594 88.175781 302.359375 90.601562 L 369.621094 266.652344 C 370.785156 269.699219 369.257812 273.113281 366.210938 274.28125 C 365.519531 274.546875 364.804688 274.671875 364.101562 274.671875 " clip-rule="nonzero"/></clipPath><clipPath id="1169ee3079"><path d="M 128.136719 88 L 247.960938 88 L 247.960938 196.59375 L 128.136719 196.59375 Z M 128.136719 88 " clip-rule="nonzero"/></clipPath><clipPath id="2a5cd2d435"><path d="M 188.347656 196.308594 C 186.210938 196.308594 184.242188 195.152344 183.191406 193.289062 L 129.09375 96.867188 C 127.496094 94.023438 128.507812 90.417969 131.351562 88.824219 C 134.195312 87.226562 137.800781 88.238281 139.398438 91.082031 L 188.320312 178.269531 L 236.683594 91.109375 C 238.269531 88.257812 241.867188 87.226562 244.71875 88.8125 C 247.566406 90.394531 248.601562 93.988281 247.015625 96.84375 L 193.511719 193.265625 C 192.476562 195.140625 190.5 196.300781 188.359375 196.308594 Z M 188.347656 196.308594 " clip-rule="nonzero"/></clipPath><clipPath id="fd71ecd998"><path d="M 182 184.332031 L 194.457031 184.332031 L 194.457031 275 L 182 275 Z M 182 184.332031 " clip-rule="nonzero"/></clipPath><clipPath id="2b11f59f23"><path d="M 188.050781 274.671875 L 188.027344 274.671875 C 184.765625 274.660156 182.132812 272.003906 182.144531 268.738281 L 182.445312 190.371094 C 182.457031 187.109375 185.117188 184.476562 188.375 184.484375 C 191.632812 184.496094 194.273438 187.152344 194.261719 190.417969 L 193.960938 268.785156 C 193.949219 272.039062 191.304688 274.671875 188.050781 274.671875 " clip-rule="nonzero"/></clipPath></defs><g clip-path="url(#910b08a3af)"><g clip-path="url(#5455d87c05)"><path fill="#f28f78" d="M 3.296875 84.011719 L 372.800781 84.011719 L 372.800781 277.402344 L 3.296875 277.402344 Z M 3.296875 84.011719 " fill-opacity="1" fill-rule="nonzero"/></g></g><g clip-path="url(#d55a69f7c4)"><g clip-path="url(#78581701b0)"><path fill="#f28f78" d="M 3.296875 84.011719 L 372.800781 84.011719 L 372.800781 277.402344 L 3.296875 277.402344 Z M 3.296875 84.011719 " fill-opacity="1" fill-rule="nonzero"/></g></g><g clip-path="url(#1169ee3079)"><g clip-path="url(#2a5cd2d435)"><path fill="#f28f78" d="M 3.296875 84.011719 L 372.800781 84.011719 L 372.800781 277.402344 L 3.296875 277.402344 Z M 3.296875 84.011719 " fill-opacity="1" fill-rule="nonzero"/></g></g><g clip-path="url(#fd71ecd998)"><g clip-path="url(#2b11f59f23)"><path fill="#f28f78" d="M 3.296875 84.011719 L 372.800781 84.011719 L 372.800781 277.402344 L 3.296875 277.402344 Z M 3.296875 84.011719 " fill-opacity="1" fill-rule="nonzero"/></g></g><g fill="#f28f78" fill-opacity="1"><g transform="translate(0.0000045, 312.304787)"><g><path d="M 2.40625 0 L 2.40625 -26.96875 L 11.859375 -26.96875 C 15.128906 -26.96875 17.609375 -26.335938 19.296875 -25.078125 C 20.992188 -23.828125 21.84375 -21.992188 21.84375 -19.578125 C 21.84375 -18.253906 21.5 -17.085938 20.8125 -16.078125 C 20.132812 -15.078125 19.191406 -14.34375 17.984375 -13.875 C 19.367188 -13.53125 20.457031 -12.832031 21.25 -11.78125 C 22.050781 -10.726562 22.453125 -9.441406 22.453125 -7.921875 C 22.453125 -5.328125 21.625 -3.363281 19.96875 -2.03125 C 18.3125 -0.695312 15.953125 -0.0195312 12.890625 0 Z M 7.96875 -11.75 L 7.96875 -4.46875 L 12.71875 -4.46875 C 14.03125 -4.46875 15.050781 -4.773438 15.78125 -5.390625 C 16.519531 -6.015625 16.890625 -6.878906 16.890625 -7.984375 C 16.890625 -10.453125 15.613281 -11.707031 13.0625 -11.75 Z M 7.96875 -15.671875 L 12.078125 -15.671875 C 14.878906 -15.722656 16.28125 -16.84375 16.28125 -19.03125 C 16.28125 -20.25 15.925781 -21.125 15.21875 -21.65625 C 14.507812 -22.195312 13.390625 -22.46875 11.859375 -22.46875 L 7.96875 -22.46875 Z M 7.96875 -15.671875 "/></g></g></g><g fill="#f28f78" fill-opacity="1"><g transform="translate(28.645396, 312.304787)"><g><path d="M 8.3125 0 L 2.765625 0 L 2.765625 -26.96875 L 8.3125 -26.96875 Z M 8.3125 0 "/></g></g></g><g fill="#f28f78" fill-opacity="1"><g transform="translate(44.140983, 312.304787)"><g><path d="M 24.5625 -12.875 C 24.5625 -10.21875 24.09375 -7.890625 23.15625 -5.890625 C 22.21875 -3.890625 20.875 -2.34375 19.125 -1.25 C 17.375 -0.164062 15.367188 0.375 13.109375 0.375 C 10.878906 0.375 8.882812 -0.160156 7.125 -1.234375 C 5.375 -2.316406 4.015625 -3.851562 3.046875 -5.84375 C 2.085938 -7.84375 1.601562 -10.132812 1.59375 -12.71875 L 1.59375 -14.0625 C 1.59375 -16.71875 2.070312 -19.050781 3.03125 -21.0625 C 3.988281 -23.082031 5.335938 -24.632812 7.078125 -25.71875 C 8.828125 -26.800781 10.828125 -27.34375 13.078125 -27.34375 C 15.328125 -27.34375 17.320312 -26.800781 19.0625 -25.71875 C 20.8125 -24.632812 22.164062 -23.082031 23.125 -21.0625 C 24.082031 -19.050781 24.5625 -16.722656 24.5625 -14.078125 Z M 18.9375 -14.09375 C 18.9375 -16.925781 18.425781 -19.078125 17.40625 -20.546875 C 16.394531 -22.015625 14.953125 -22.75 13.078125 -22.75 C 11.210938 -22.75 9.773438 -22.019531 8.765625 -20.5625 C 7.753906 -19.113281 7.238281 -16.988281 7.21875 -14.1875 L 7.21875 -12.875 C 7.21875 -10.125 7.722656 -7.988281 8.734375 -6.46875 C 9.753906 -4.945312 11.210938 -4.1875 13.109375 -4.1875 C 14.972656 -4.1875 16.40625 -4.914062 17.40625 -6.375 C 18.40625 -7.84375 18.914062 -9.976562 18.9375 -12.78125 Z M 18.9375 -14.09375 "/></g></g></g><g fill="#f28f78" fill-opacity="1"><g transform="translate(74.768106, 312.304787)"><g><path d="M 17.640625 -5.5625 L 7.890625 -5.5625 L 6.03125 0 L 0.125 0 L 10.171875 -26.96875 L 15.3125 -26.96875 L 25.421875 0 L 19.5 0 Z M 9.390625 -10.0625 L 16.140625 -10.0625 L 12.75 -20.15625 Z M 9.390625 -10.0625 "/></g></g></g><g fill="#f28f78" fill-opacity="1"><g transform="translate(104.728478, 312.304787)"><g><path d="M 12.390625 -9.875 L 7.96875 -9.875 L 7.96875 0 L 2.40625 0 L 2.40625 -26.96875 L 12.4375 -26.96875 C 15.613281 -26.96875 18.066406 -26.253906 19.796875 -24.828125 C 21.523438 -23.410156 22.390625 -21.410156 22.390625 -18.828125 C 22.390625 -16.984375 21.988281 -15.445312 21.1875 -14.21875 C 20.394531 -12.988281 19.191406 -12.007812 17.578125 -11.28125 L 23.421875 -0.265625 L 23.421875 0 L 17.453125 0 Z M 7.96875 -14.375 L 12.453125 -14.375 C 13.847656 -14.375 14.925781 -14.726562 15.6875 -15.4375 C 16.457031 -16.144531 16.84375 -17.125 16.84375 -18.375 C 16.84375 -19.644531 16.476562 -20.644531 15.75 -21.375 C 15.03125 -22.101562 13.925781 -22.46875 12.4375 -22.46875 L 7.96875 -22.46875 Z M 7.96875 -14.375 "/></g></g></g><g fill="#f28f78" fill-opacity="1"><g transform="translate(133.373876, 312.304787)"><g><path d="M 24.53125 -12.875 C 24.53125 -10.351562 24.117188 -8.160156 23.296875 -6.296875 C 22.484375 -4.441406 21.351562 -2.953125 19.90625 -1.828125 L 24.390625 1.6875 L 20.859375 4.8125 L 15.109375 0.203125 C 14.460938 0.316406 13.785156 0.375 13.078125 0.375 C 10.835938 0.375 8.84375 -0.160156 7.09375 -1.234375 C 5.34375 -2.316406 3.984375 -3.851562 3.015625 -5.84375 C 2.054688 -7.84375 1.570312 -10.132812 1.5625 -12.71875 L 1.5625 -14.0625 C 1.5625 -16.71875 2.035156 -19.050781 2.984375 -21.0625 C 3.941406 -23.082031 5.296875 -24.632812 7.046875 -25.71875 C 8.796875 -26.800781 10.789062 -27.34375 13.03125 -27.34375 C 15.28125 -27.34375 17.28125 -26.800781 19.03125 -25.71875 C 20.78125 -24.632812 22.132812 -23.082031 23.09375 -21.0625 C 24.050781 -19.050781 24.53125 -16.722656 24.53125 -14.078125 Z M 18.890625 -14.09375 C 18.890625 -16.925781 18.382812 -19.078125 17.375 -20.546875 C 16.363281 -22.015625 14.921875 -22.75 13.046875 -22.75 C 11.179688 -22.75 9.738281 -22.019531 8.71875 -20.5625 C 7.707031 -19.113281 7.195312 -16.988281 7.1875 -14.1875 L 7.1875 -12.875 C 7.1875 -10.125 7.691406 -7.988281 8.703125 -6.46875 C 9.710938 -4.945312 11.171875 -4.1875 13.078125 -4.1875 C 14.941406 -4.1875 16.375 -4.914062 17.375 -6.375 C 18.375 -7.84375 18.878906 -9.976562 18.890625 -12.78125 Z M 18.890625 -14.09375 "/></g></g></g><g fill="#f28f78" fill-opacity="1"><g transform="translate(164.001006, 312.304787)"><g><path d="M 22.828125 -26.96875 L 22.828125 -9.203125 C 22.828125 -6.253906 21.898438 -3.921875 20.046875 -2.203125 C 18.203125 -0.484375 15.679688 0.375 12.484375 0.375 C 9.335938 0.375 6.835938 -0.457031 4.984375 -2.125 C 3.128906 -3.789062 2.1875 -6.082031 2.15625 -9 L 2.15625 -26.96875 L 7.703125 -26.96875 L 7.703125 -9.171875 C 7.703125 -7.398438 8.125 -6.109375 8.96875 -5.296875 C 9.820312 -4.492188 10.992188 -4.09375 12.484375 -4.09375 C 15.609375 -4.09375 17.195312 -5.734375 17.25 -9.015625 L 17.25 -26.96875 Z M 22.828125 -26.96875 "/></g></g></g><g fill="#f28f78" fill-opacity="1"><g transform="translate(193.405759, 312.304787)"><g><path d="M 8.3125 0 L 2.765625 0 L 2.765625 -26.96875 L 8.3125 -26.96875 Z M 8.3125 0 "/></g></g></g><g fill="#f28f78" fill-opacity="1"><g transform="translate(208.901351, 312.304787)"><g><path d="M 22.703125 -22.46875 L 14.453125 -22.46875 L 14.453125 0 L 8.890625 0 L 8.890625 -22.46875 L 0.734375 -22.46875 L 0.734375 -26.96875 L 22.703125 -26.96875 Z M 22.703125 -22.46875 "/></g></g></g><g fill="#f28f78" fill-opacity="1"><g transform="translate(236.805915, 312.304787)"><g><path d="M 18.640625 -11.6875 L 7.96875 -11.6875 L 7.96875 -4.46875 L 20.484375 -4.46875 L 20.484375 0 L 2.40625 0 L 2.40625 -26.96875 L 20.453125 -26.96875 L 20.453125 -22.46875 L 7.96875 -22.46875 L 7.96875 -16.046875 L 18.640625 -16.046875 Z M 18.640625 -11.6875 "/></g></g></g><g fill="#f28f78" fill-opacity="1"><g transform="translate(262.580581, 312.304787)"><g><path d="M 22.703125 -22.46875 L 14.453125 -22.46875 L 14.453125 0 L 8.890625 0 L 8.890625 -22.46875 L 0.734375 -22.46875 L 0.734375 -26.96875 L 22.703125 -26.96875 Z M 22.703125 -22.46875 "/></g></g></g><g fill="#f28f78" fill-opacity="1"><g transform="translate(290.485145, 312.304787)"><g><path d="M 22.828125 -26.96875 L 22.828125 -9.203125 C 22.828125 -6.253906 21.898438 -3.921875 20.046875 -2.203125 C 18.203125 -0.484375 15.679688 0.375 12.484375 0.375 C 9.335938 0.375 6.835938 -0.457031 4.984375 -2.125 C 3.128906 -3.789062 2.1875 -6.082031 2.15625 -9 L 2.15625 -26.96875 L 7.703125 -26.96875 L 7.703125 -9.171875 C 7.703125 -7.398438 8.125 -6.109375 8.96875 -5.296875 C 9.820312 -4.492188 10.992188 -4.09375 12.484375 -4.09375 C 15.609375 -4.09375 17.195312 -5.734375 17.25 -9.015625 L 17.25 -26.96875 Z M 22.828125 -26.96875 "/></g></g></g><g fill="#f28f78" fill-opacity="1"><g transform="translate(319.889898, 312.304787)"><g><path d="M 12.390625 -9.875 L 7.96875 -9.875 L 7.96875 0 L 2.40625 0 L 2.40625 -26.96875 L 12.4375 -26.96875 C 15.613281 -26.96875 18.066406 -26.253906 19.796875 -24.828125 C 21.523438 -23.410156 22.390625 -21.410156 22.390625 -18.828125 C 22.390625 -16.984375 21.988281 -15.445312 21.1875 -14.21875 C 20.394531 -12.988281 19.191406 -12.007812 17.578125 -11.28125 L 23.421875 -0.265625 L 23.421875 0 L 17.453125 0 Z M 7.96875 -14.375 L 12.453125 -14.375 C 13.847656 -14.375 14.925781 -14.726562 15.6875 -15.4375 C 16.457031 -16.144531 16.84375 -17.125 16.84375 -18.375 C 16.84375 -19.644531 16.476562 -20.644531 15.75 -21.375 C 15.03125 -22.101562 13.925781 -22.46875 12.4375 -22.46875 L 7.96875 -22.46875 Z M 7.96875 -14.375 "/></g></g></g><g fill="#f28f78" fill-opacity="1"><g transform="translate(348.535296, 312.304787)"><g><path d="M 17.640625 -5.5625 L 7.890625 -5.5625 L 6.03125 0 L 0.125 0 L 10.171875 -26.96875 L 15.3125 -26.96875 L 25.421875 0 L 19.5 0 Z M 9.390625 -10.0625 L 16.140625 -10.0625 L 12.75 -20.15625 Z M 9.390625 -10.0625 "/></g></g></g></svg>